<?xml version="1.0" encoding="utf-8"?>
<!-- Generator: Adobe Illustrator 22.1.0, SVG Export Plug-In . SVG Version: 6.00 Build 0)  -->
<svg version="1.1" id="Layer_1" xmlns="http://www.w3.org/2000/svg"  x="0px" y="0px"
	 viewBox="0 0 280 45.9" style="enable-background:new 0 0 280 45.9;" xml:space="preserve">
<style type="text/css">
	.st0{fill:#1C64FF;}
</style>
<title>Logo</title>
<g>
	<path class="st0" d="M77,12.1h-7.5c-0.5,0-0.9-0.4-0.8-0.9c0-0.5,0.4-0.8,0.8-0.9h16.7c0.5,0,0.9,0.4,0.9,0.9
		c0,0.5-0.4,0.9-0.9,0.9h-7.5l-0.1,22.2c0,0.5-0.4,0.9-0.9,0.8c-0.5,0-0.8-0.4-0.8-0.8L77,12.1z"/>
	<path class="st0" d="M86.7,18.7c0-0.5,0.4-0.9,0.8-0.9c0,0,0,0,0,0c0.5,0,0.8,0.4,0.8,0.8c0,0,0,0,0,0v3.8c0.1-0.1,0.2-0.3,0.2-0.4
		c1.4-2.5,4.1-4.1,7-4.2c0.5,0,0.8,0.4,0.8,0.8c0,0,0,0,0,0c0,0.5-0.4,0.8-0.8,0.9c-2,0.1-3.9,1.1-5,2.8c-0.9,1.2-1.6,2.6-2.1,4
		c0,0.1-0.1,0.2-0.1,0.3v7.6c0,0.5-0.4,0.8-0.8,0.8c0,0,0,0,0,0c-0.5,0-0.9-0.4-0.9-0.8c0,0,0,0,0,0L86.7,18.7z"/>
	<path class="st0" d="M114.5,18.7v15.7c0,0.5-0.4,0.8-0.9,0.8c-0.5,0-0.8-0.4-0.8-0.8v-2.6c-1.5,2.1-3.9,3.4-6.5,3.4
		c-4.7-0.1-8.4-4-8.3-8.7c0,0,0,0,0,0c-0.1-4.7,3.6-8.5,8.3-8.7c2.6,0,5,1.3,6.5,3.4v-2.6c0-0.5,0.4-0.9,0.8-0.9
		C114.1,17.9,114.5,18.2,114.5,18.7C114.5,18.7,114.5,18.7,114.5,18.7L114.5,18.7z M112.8,26.6c0.3-3.6-2.4-6.8-6-7
		c-3.6-0.3-6.8,2.4-7,6c0,0.3,0,0.7,0,1c-0.3,3.6,2.4,6.8,6,7c3.6,0.3,6.8-2.4,7-6C112.8,27.2,112.8,26.9,112.8,26.6z"/>
	<path class="st0" d="M132.6,31.9c-1.6,2.1-4,3.4-6.7,3.4c-4.7-0.1-8.5-3.9-8.4-8.6c0,0,0,0,0,0c-0.1-4.7,3.7-8.6,8.4-8.7
		c0,0,0,0,0.1,0c2.6,0,5.1,1.3,6.7,3.4v-10c0-0.5,0.4-0.9,0.9-0.9c0.5,0,0.8,0.4,0.9,0.9v15v0.4v7.8c0,0.5-0.4,0.8-0.9,0.8
		c-0.5,0-0.9-0.4-0.9-0.8c0,0,0,0,0,0L132.6,31.9z M132.6,26.9v-0.6c-0.1-3.7-3.1-6.6-6.8-6.5c-3.7,0.1-6.6,3.1-6.5,6.8l0,0
		c-0.1,3.7,2.8,6.7,6.5,6.8C129.5,33.5,132.5,30.6,132.6,26.9z"/>
	<path class="st0" d="M137.4,26.7c0-4.7,3.8-8.4,8.4-8.4c4.4,0,8.1,3.4,8.4,7.8v0.1c0,0.4-0.4,0.8-0.8,0.8c0,0,0,0,0,0l-14.3,0
		c0.1,3.7,3.1,6.6,6.7,6.7c2.3,0,4.4-1.2,5.6-3.1c0.2-0.4,0.7-0.5,1.1-0.3c0,0,0,0,0,0c0.4,0.3,0.5,0.8,0.3,1.2
		c-1.5,2.4-4.1,3.9-7,3.9C141.1,35.3,137.3,31.5,137.4,26.7C137.4,26.7,137.4,26.7,137.4,26.7z M139.2,25.3h13.2
		c-0.5-3.2-3.3-5.6-6.5-5.7C142.6,19.6,139.8,22,139.2,25.3L139.2,25.3z"/>
	<path class="st0" d="M171.3,29H160l-2.2,5.8c-0.1,0.3-0.5,0.6-0.8,0.6c-0.1,0-0.2,0-0.3,0c-0.4-0.2-0.7-0.7-0.5-1.1l8.7-23
		c0.2-0.3,0.5-0.5,0.9-0.5c0.4,0,0.7,0.2,0.9,0.5l8.6,23c0.2,0.4,0,0.9-0.5,1.1c-0.1,0-0.2,0-0.3,0c-0.4,0-0.7-0.2-0.8-0.6L171.3,29
		z M160.6,27.2h10l-5-13.4L160.6,27.2z"/>
	<path class="st0" d="M178.6,27v-0.7v-7.4c0-0.5,0.4-0.9,0.8-0.9c0,0,0,0,0,0c0.5,0,0.9,0.4,0.9,0.9v2.5c1.6-2.1,4-3.3,6.6-3.3
		c4.8,0,8.6,3.9,8.6,8.6c0,4.8-3.9,8.6-8.6,8.6c-2.6,0-5.1-1.3-6.6-3.4v9.9c0,0.5-0.4,0.9-0.9,0.9c0,0,0,0,0,0
		c-0.5,0-0.8-0.4-0.9-0.8L178.6,27z M180.4,26.6c-0.1,3.7,2.7,6.8,6.4,6.9s6.8-2.7,6.9-6.4c0-0.2,0-0.3,0-0.5c0.2-3.7-2.6-6.8-6.3-7
		c-3.7-0.2-6.8,2.6-7,6.3c0,0.1,0,0.3,0,0.4V26.6z"/>
	<path class="st0" d="M198.4,27.1v-0.7V19c0-0.5,0.4-0.8,0.9-0.9c0.5,0,0.9,0.4,0.9,0.8c0,0,0,0,0,0v2.5c1.5-2.1,4-3.3,6.6-3.4
		c4.8,0,8.6,3.9,8.6,8.6s-3.9,8.6-8.6,8.6c-2.6,0-5.1-1.3-6.6-3.4v9.9c0,0.5-0.4,0.9-0.9,0.9c-0.5,0-0.9-0.4-0.9-0.9l0,0L198.4,27.1
		z M200.2,26.7c-0.1,3.7,2.7,6.8,6.4,6.9c3.7,0.1,6.8-2.7,6.9-6.4c0-0.2,0-0.3,0-0.5c0.2-3.7-2.6-6.8-6.3-7c-3.7-0.2-6.8,2.6-7,6.3
		c0,0.1,0,0.3,0,0.4V26.7z"/>
	<path class="st0" d="M238.6,14.1c-2.1-2.3-5.1-3.7-8.3-3.7l0,0c-3.2,0-6.3,1.3-8.5,3.7c-2.2,2.4-3.5,5.5-3.5,8.8
		c0,3.3,1.2,6.4,3.4,8.8c2.2,2.4,5.3,3.7,8.5,3.7l0,0c3.1,0,6.1-1.4,8.3-3.7c2.3-2.4,3.5-5.5,3.5-8.8
		C242.1,19.7,240.8,16.5,238.6,14.1L238.6,14.1z M236.1,29.3c-1.5,1.7-3.6,2.6-5.8,2.6l0,0c-2.3,0-4.4-1-5.9-2.7
		c-1.6-1.7-2.5-4-2.5-6.4c0-2.4,0.9-4.7,2.5-6.4c1.5-1.7,3.7-2.6,5.9-2.6l0,0c2.2,0,4.3,1,5.8,2.6c1.6,1.8,2.5,4,2.5,6.4
		C238.6,25.3,237.7,27.6,236.1,29.3z"/>
	<path class="st0" d="M258.3,35.5L258.3,35.5c0.4,0,0.8-0.2,1.1-0.5c0.3-0.3,0.5-0.7,0.5-1.1v-8.5c0-3.9-3.2-7.1-7.1-7.1l0,0
		c-1.3,0-2.5,0.4-3.6,1l-0.3,0.2l-0.1-0.3c-0.3-0.6-0.8-0.9-1.5-0.9l0,0c-0.4,0-0.8,0.2-1.1,0.5c-0.3,0.3-0.5,0.7-0.5,1.1v14
		c0,0.4,0.2,0.8,0.4,1.1c0.3,0.3,0.7,0.5,1.1,0.5l0,0c0.8,0,1.4-0.5,1.6-1.3v-0.1c0-0.1,0-0.2,0-0.2v-8.5c0-2.1,1.6-3.8,3.7-3.9
		c0,0,0.1,0,0.1,0l0,0c2.2,0,4,1.7,4,3.9c0,0,0,0,0,0v8.5C256.7,34.8,257.5,35.5,258.3,35.5z"/>
	<path class="st0" d="M280,26.3c-0.1-4.5-3.8-8-8.2-8l0,0c-4.7,0.2-8.5,4.1-8.3,8.9c0.2,4.5,3.8,8.1,8.3,8.3l0,0
		c2.3,0.1,4.5-0.7,6.1-2.2c0.2-0.2,0.4-0.5,0.4-0.8c0-0.4-0.1-0.8-0.4-1.1c-0.3-0.2-0.6-0.4-0.9-0.4c-0.5,0-1,0.1-1.3,0.5
		c-1.2,0.8-2.5,1.1-3.9,1c-1.4-0.1-2.6-0.7-3.6-1.7c-0.7-0.7-1.1-1.5-1.3-2.5l-0.1-0.4h11.6l0,0c0.7,0.1,1.4-0.4,1.6-1.1v-0.1
		c0-0.1,0-0.1,0-0.2V26.3z M266.6,25.5l0.1-0.3c0.6-2.3,2.7-4,5.1-4c2.5,0.1,4.7,1.7,5.5,4l0.1,0.4L266.6,25.5z"/>
	<path class="st0" d="M32.2,45.7H18.3C8.2,45.7,0,37.5,0,27.5V17c0-0.9,0.7-1.7,1.6-1.7c0,0,0,0,0,0l0,0c0.9,0,1.7,0.7,1.7,1.7
		c0,0,0,0,0,0v10.5c0,8.3,6.7,14.9,14.9,14.9c0,0,0,0,0.1,0h13.9c0.9,0,1.7,0.7,1.7,1.7l0,0C33.9,45,33.1,45.7,32.2,45.7
		C32.2,45.7,32.2,45.7,32.2,45.7z"/>
	<path class="st0" d="M37.9,37.4H18.3c-5.5,0-10-4.5-10-10V10c0-5.5,4.5-10,10-10h24.9c5.5,0,10,4.5,9.9,10.1c0,0.9-0.1,1.9-0.4,2.8
		l-5.2,17.5C46.2,34.5,42.3,37.4,37.9,37.4z M18.3,3.3c-3.7,0-6.6,3-6.6,6.7c0,0,0,0,0,0v17.5c0,3.7,3,6.6,6.6,6.6h19.6
		c2.9,0,5.5-1.9,6.3-4.7l5.2-17.5c1.1-3.5-0.9-7.2-4.4-8.3c-0.6-0.2-1.3-0.3-1.9-0.3L18.3,3.3z"/>
	<circle class="st0" cx="42.6" cy="44.1" r="1.8"/>
</g>
</svg>
